<?xml version="1.0" standalone="no"?>
<!DOCTYPE svg PUBLIC "-//W3C//DTD SVG 20010904//EN"
 "http://www.w3.org/TR/2001/REC-SVG-20010904/DTD/svg10.dtd">
<svg version="1.0" xmlns="http://www.w3.org/2000/svg"
 width="197.000000pt" height="44.000000pt" viewBox="0 0 197.000000 44.000000"
 preserveAspectRatio="xMidYMid meet">

<g transform="translate(0.000000,44.000000) scale(0.100000,-0.100000)"
fill="#000000" stroke="none">
<path d="M1373 399 c-42 -12 -63 -44 -63 -95 0 -52 25 -75 106 -99 88 -26 116
-68 74 -113 -45 -48 -144 -23 -157 39 -8 41 -39 36 -36 -6 5 -64 96 -109 174
-86 47 14 71 47 71 97 0 45 -29 77 -85 93 -102 31 -130 58 -106 103 16 31 28
38 65 38 31 0 55 -19 67 -52 9 -25 37 -23 37 3 0 24 -51 79 -73 79 -9 0 -21 2
-29 4 -7 2 -27 0 -45 -5z"/>
<path d="M189 363 c-12 -30 -109 -315 -109 -320 0 -2 9 -3 19 -3 14 0 23 12
33 43 l13 42 79 0 79 0 15 -42 c9 -30 19 -43 32 -43 16 0 12 19 -39 173 -54
162 -59 172 -84 175 -22 3 -29 -2 -38 -25z m96 -184 c6 -17 1 -19 -59 -19 -36
0 -66 3 -66 7 0 5 14 51 32 103 l31 95 28 -83 c16 -46 31 -92 34 -103z"/>
<path d="M447 223 c-31 -93 -57 -171 -57 -175 0 -5 8 -8 19 -8 13 0 22 12 31
45 l13 45 77 0 78 0 14 -42 c11 -31 21 -44 36 -46 l22 -3 -18 48 c-11 26 -38
105 -61 176 -41 121 -44 127 -69 127 -26 0 -30 -7 -85 -167z m120 35 l29 -93
-59 -3 c-33 -2 -62 0 -65 3 -7 7 49 185 59 185 3 0 20 -42 36 -92z"/>
<path d="M700 383 c0 -3 25 -53 55 -109 51 -95 55 -109 55 -169 0 -51 3 -65
15 -65 12 0 15 13 15 60 0 53 7 73 55 170 30 60 55 112 55 115 0 3 -8 5 -18 5
-13 0 -30 -24 -57 -81 -22 -44 -43 -83 -47 -85 -4 -3 -27 33 -50 81 -29 59
-48 85 -60 85 -10 0 -18 -3 -18 -7z"/>
<path d="M992 251 c3 -161 14 -185 86 -211 37 -13 47 -13 84 0 72 26 82 50 86
211 4 136 3 139 -17 139 -20 0 -21 -5 -21 -124 0 -69 -4 -136 -10 -151 -6 -15
-24 -32 -45 -41 -31 -12 -39 -12 -70 0 -21 9 -39 26 -45 41 -6 15 -10 82 -10
151 0 119 -1 124 -21 124 -20 0 -20 -4 -17 -139z"/>
<path d="M1590 215 c0 -168 1 -175 20 -175 18 0 20 7 20 85 l0 85 85 0 85 0 0
-85 c0 -78 2 -85 20 -85 19 0 20 7 20 175 0 168 -1 175 -20 175 -18 0 -20 -7
-20 -75 l0 -75 -85 0 -85 0 0 75 c0 68 -2 75 -20 75 -19 0 -20 -7 -20 -175z"/>
</g>
</svg>
